<svg width="15" height="15" viewBox="0 0 15 15" fill="none" xmlns="http://www.w3.org/2000/svg">
<path d="M7.3625 3.40625C9.33125 3.40625 10.9563 5.03125 10.9563 7C10.9563 9 9.33125 10.5938 7.3625 10.5938C5.3625 10.5938 3.76875 9 3.76875 7C3.76875 5.03125 5.3625 3.40625 7.3625 3.40625ZM7.3625 9.34375C8.64375 9.34375 9.675 8.3125 9.675 7C9.675 5.71875 8.64375 4.6875 7.3625 4.6875C6.05 4.6875 5.01875 5.71875 5.01875 7C5.01875 8.3125 6.08125 9.34375 7.3625 9.34375ZM11.925 3.28125C11.925 3.75 11.55 4.125 11.0813 4.125C10.6125 4.125 10.2375 3.75 10.2375 3.28125C10.2375 2.8125 10.6125 2.4375 11.0813 2.4375C11.55 2.4375 11.925 2.8125 11.925 3.28125ZM14.3 4.125C14.3625 5.28125 14.3625 8.75 14.3 9.90625C14.2375 11.0312 13.9875 12 13.175 12.8438C12.3625 13.6562 11.3625 13.9062 10.2375 13.9688C9.08125 14.0312 5.6125 14.0312 4.45625 13.9688C3.33125 13.9062 2.3625 13.6562 1.51875 12.8438C0.70625 12 0.45625 11.0312 0.39375 9.90625C0.33125 8.75 0.33125 5.28125 0.39375 4.125C0.45625 3 0.70625 2 1.51875 1.1875C2.3625 0.375 3.33125 0.125 4.45625 0.0625C5.6125 0 9.08125 0 10.2375 0.0625C11.3625 0.125 12.3625 0.375 13.175 1.1875C13.9875 2 14.2375 3 14.3 4.125ZM12.8 11.125C13.175 10.2188 13.0813 8.03125 13.0813 7C13.0813 6 13.175 3.8125 12.8 2.875C12.55 2.28125 12.0813 1.78125 11.4875 1.5625C10.55 1.1875 8.3625 1.28125 7.3625 1.28125C6.33125 1.28125 4.14375 1.1875 3.2375 1.5625C2.6125 1.8125 2.14375 2.28125 1.89375 2.875C1.51875 3.8125 1.6125 6 1.6125 7C1.6125 8.03125 1.51875 10.2188 1.89375 11.125C2.14375 11.75 2.6125 12.2188 3.2375 12.4688C4.14375 12.8438 6.33125 12.75 7.3625 12.75C8.3625 12.75 10.55 12.8438 11.4875 12.4688C12.0813 12.2188 12.5813 11.75 12.8 11.125Z" fill="#090E1B"/>
</svg>
