<svg width="15" height="14" viewBox="0 0 15 14" fill="none" xmlns="http://www.w3.org/2000/svg">
<path d="M3.4875 14H0.58125V4.65625H3.4875V14ZM2.01875 3.40625C1.1125 3.40625 0.3625 2.625 0.3625 1.6875C0.3625 0.78125 1.1125 0.03125 2.01875 0.03125C2.95625 0.03125 3.70625 0.78125 3.70625 1.6875C3.70625 2.625 2.95625 3.40625 2.01875 3.40625ZM14.3313 14H11.4563V9.46875C11.4563 8.375 11.425 7 9.925 7C8.425 7 8.20625 8.15625 8.20625 9.375V14H5.3V4.65625H8.08125V5.9375H8.1125C8.51875 5.21875 9.45625 4.4375 10.8625 4.4375C13.8 4.4375 14.3625 6.375 14.3625 8.875V14H14.3313Z" fill="#090E1B"/>
</svg>
