<svg width="17" height="14" viewBox="0 0 17 14" fill="none" xmlns="http://www.w3.org/2000/svg">
<path d="M14.7313 3.75C14.7313 3.90625 14.7313 4.03125 14.7313 4.1875C14.7313 8.53125 11.45 13.5 5.41875 13.5C3.54375 13.5 1.825 12.9688 0.387501 12.0312C0.637501 12.0625 0.887501 12.0938 1.16875 12.0938C2.7 12.0938 4.10625 11.5625 5.23125 10.6875C3.79375 10.6562 2.575 9.71875 2.16875 8.40625C2.3875 8.4375 2.575 8.46875 2.79375 8.46875C3.075 8.46875 3.3875 8.40625 3.6375 8.34375C2.1375 8.03125 1.0125 6.71875 1.0125 5.125V5.09375C1.45 5.34375 1.98125 5.46875 2.5125 5.5C1.60625 4.90625 1.04375 3.90625 1.04375 2.78125C1.04375 2.15625 1.2 1.59375 1.48125 1.125C3.10625 3.09375 5.54375 4.40625 8.2625 4.5625C8.2 4.3125 8.16875 4.0625 8.16875 3.8125C8.16875 2 9.6375 0.53125 11.45 0.53125C12.3875 0.53125 13.2313 0.90625 13.8563 1.5625C14.575 1.40625 15.2938 1.125 15.9188 0.75C15.6688 1.53125 15.1688 2.15625 14.4813 2.5625C15.1375 2.5 15.7938 2.3125 16.3563 2.0625C15.9188 2.71875 15.3563 3.28125 14.7313 3.75Z" fill="#090E1B"/>
</svg>
