<svg width="18" height="12" viewBox="0 0 18 12" fill="none" xmlns="http://www.w3.org/2000/svg">
<path d="M17.4625 1.90625C17.8375 3.21875 17.8375 6.03125 17.8375 6.03125C17.8375 6.03125 17.8375 8.8125 17.4625 10.1562C17.275 10.9062 16.6813 11.4688 15.9625 11.6562C14.6188 12 9.30625 12 9.30625 12C9.30625 12 3.9625 12 2.61875 11.6562C1.9 11.4688 1.30625 10.9062 1.11875 10.1562C0.743752 8.8125 0.743752 6.03125 0.743752 6.03125C0.743752 6.03125 0.743752 3.21875 1.11875 1.90625C1.30625 1.15625 1.9 0.5625 2.61875 0.375C3.9625 0 9.30625 0 9.30625 0C9.30625 0 14.6188 0 15.9625 0.375C16.6813 0.5625 17.275 1.15625 17.4625 1.90625ZM7.55625 8.5625L11.9938 6.03125L7.55625 3.5V8.5625Z" fill="#090E1B"/>
</svg>
